<svg width="46" height="62" viewBox="0 0 46 62" fill="none" xmlns="http://www.w3.org/2000/svg">
<path d="M4.00777 15.6323H0.49715C0.49715 4.03502 14.0271 0.10023 20.0654 8.41359C25.0364 7.15623 29.5581 10.1739 31.1098 14.6264L27.8168 15.8764C26.6934 12.6442 23.2249 10.8396 20.0022 12.2226C19.1877 12.5703 18.2539 12.23 17.8186 11.4313C14.2939 4.96695 4.00777 7.2154 4.00777 15.6323ZM38.4049 26.7267H36.0527V30.4248H38.4049C40.7289 30.4248 42.3719 32.5475 42.3719 34.9956V42.2365C42.3719 44.6847 40.7289 46.6965 38.4049 46.6965H36.0527V50.3946H38.4049C42.6667 50.3946 45.8825 46.7261 45.8825 42.2365V34.9956C45.8825 30.5061 42.6667 26.7267 38.4049 26.7267ZM0.244385 19.3304H32.5421V56.6074C32.5421 59.4106 30.3866 61.4889 27.7255 61.4889H5.32074C2.65969 61.4889 0.244385 59.4106 0.244385 56.6074V19.3304ZM13.5848 34.1229H10.0741V54.0927H13.5848V34.1229ZM23.4145 34.1229H19.9039V54.0927H23.4145V34.1229ZM3.75501 28.9455H29.0315V23.0285H3.75501V28.9455ZM22.8949 5.72136L26.2511 4.64151C25.3594 1.54989 21.9541 -0.0994679 18.6611 0.958193L19.6862 4.49359C21.0975 4.04242 22.5719 4.60453 22.8949 5.72136Z" fill="white"/>
</svg>
