<svg width="46" height="77" viewBox="0 0 46 77" fill="none" xmlns="http://www.w3.org/2000/svg">
<path d="M45.7555 2.56641V6.47793H36.313L31.1254 20.5907L27.518 19.2217L33.646 2.56641H45.7555ZM39.5736 40.0779L37.6311 72.8017C37.5232 74.6793 36.0047 76.0952 34.1008 76.0952H16.1947C14.2908 76.0952 12.78 74.6793 12.6644 72.8017L10.722 40.0779C11.2924 40.1483 39.0032 40.1561 39.5736 40.0779ZM24.0879 68.9919L22.3459 44.5605L18.4995 44.8422L20.2415 69.2735L24.0879 68.9919ZM31.7961 44.8422L27.9497 44.5605L26.2076 68.9919L30.054 69.2735L31.7961 44.8422ZM39.0263 25.2532H11.2769C10.429 25.2532 9.52719 25.926 9.52719 26.7944V34.1324C9.52719 34.9929 10.4213 36.2133 11.2769 36.2133C33.3916 36.2133 21.205 36.2133 39.0263 36.2133C39.8742 36.2133 40.3598 34.9929 40.3598 34.1324V26.7866C40.3598 25.926 39.8742 25.2532 39.0263 25.2532ZM19.0159 21.3417C18.4609 19.9179 16.8576 15.1302 12.6182 12.4626C12.4255 11.5394 11.6932 9.12994 14.5606 5.14801C17.7518 7.75309 19.147 10.7571 18.0216 15.0598L21.7446 16.069C23.4173 9.68538 20.6501 4.08408 15.2004 0.814043L13.8977 0.0317383C11.0303 3.02014 8.52513 6.61874 8.54055 10.8275C4.70959 9.95918 1.56466 10.5537 0.261984 10.7493C-0.30842 17.1016 0.670517 22.4526 5.71165 26.1685C6.03539 23.2897 8.58679 21.3417 11.2769 21.3417H19.0159Z" fill="white"/>
</svg>
