<svg width="47" height="77" viewBox="0 0 47 77" fill="none" xmlns="http://www.w3.org/2000/svg">
<path d="M29.608 46.149H42.2887C46.6905 56.6813 45.9544 54.8772 46.2095 55.6441H25.709C25.7309 55.5857 25.8548 55.1475 25.8329 55.1986L29.608 46.149ZM38.1638 67.3524C36.7791 67.5423 35.6714 67.5423 34.5199 67.44V71.7129H32.3336V75.3648H40.3501V71.7129H38.1638V67.3524ZM42.347 62.1227C44.0523 61.1148 44.9925 60.7204 45.7941 59.2961H26.0661C27.4435 61.7941 35.0446 66.3517 42.347 62.1227ZM10.7909 13.2665L14.3692 12.5873C13.2906 6.83903 12.8315 6.01369 13.9174 4.69897C15.0397 3.34774 17.1094 3.34774 18.2245 4.69897C19.3103 6.00638 18.8512 6.83173 17.7726 12.5873L21.3509 13.2665L22.4004 7.68629C23.151 3.70563 20.1047 0.0317383 16.0673 0.0317383C12.0299 0.0317383 8.99086 3.71294 9.73422 7.68629L10.7909 13.2665ZM29.1197 66.0158C28.9083 68.5429 29.0395 67.1771 28.5148 72.2753C28.2962 74.4299 26.4961 76.0952 24.3316 76.0952H7.81025C5.64578 76.0952 3.8457 74.4299 3.62707 72.2753L0.653655 43.4027C-0.0532589 36.5589 3.8457 29.905 10.4703 27.334V15.4723H21.4019V27.239C27.4362 29.5252 31.4591 35.7627 31.0509 42.497H27.1884C22.0141 54.8699 22.4587 53.7159 22.2546 54.4974C20.9938 58.1932 22.6117 62.3346 26.1026 64.3578C27.8589 65.3803 28.1285 65.5629 29.1197 66.0158ZM14.1725 65.1174L11.7967 42.1756L8.17463 42.5554L10.5432 65.4972L14.1725 65.1174Z" fill="white"/>
</svg>
