<svg width="158" height="40" viewBox="0 0 158 40" fill="none" xmlns="http://www.w3.org/2000/svg">
<path d="M0 0.143951V19.9031V39.6622L19.93 19.9031L0 0.143951Z" fill="url(#paint0_linear)"/>
<path d="M25.2805 14.597L17.2373 9.95107L0 0V0.143005L19.93 19.9021L25.2805 14.597Z" fill="url(#paint1_linear)"/>
<path d="M0 39.6612V39.8077L17.2373 29.8532L25.2805 25.2107L19.93 19.9021L0 39.6612Z" fill="url(#paint2_linear)"/>
<path d="M25.2805 14.597L19.9301 19.9021L25.2805 25.2108L34.4747 19.9021L25.2805 14.597Z" fill="url(#paint3_linear)"/>
<path d="M125.461 27.6278C124.711 27.6278 124.031 27.4883 123.41 27.2128C122.793 26.9372 122.273 26.5117 121.851 25.9397H121.725C121.809 26.6094 121.851 27.2476 121.851 27.8476V32.5772H120.11V15.9258H121.526L121.767 17.4989H121.851C122.297 16.8711 122.82 16.4141 123.413 16.1351C124.006 15.8561 124.69 15.7166 125.457 15.7166C126.982 15.7166 128.157 16.2363 128.987 17.2791C129.817 18.322 130.229 19.7835 130.229 21.6635C130.229 23.5504 129.807 25.0189 128.966 26.0618C128.126 27.1046 126.957 27.6278 125.461 27.6278ZM125.21 17.1954C124.034 17.1954 123.187 17.5198 122.664 18.1721C122.14 18.8208 121.868 19.8567 121.854 21.2763V21.6635C121.854 23.2784 122.123 24.4329 122.664 25.1305C123.201 25.8246 124.066 26.1734 125.252 26.1734C126.246 26.1734 127.023 25.7723 127.585 24.9665C128.147 24.1643 128.429 23.0552 128.429 21.6425C128.429 20.209 128.147 19.1103 127.585 18.343C127.02 17.5756 126.228 17.1954 125.21 17.1954Z" fill="#333333"/>
<path d="M134.261 27.4186H132.52V11.102H134.261V27.4186Z" fill="#333333"/>
<path d="M144.271 27.4186L143.926 25.7827H143.842C143.27 26.5047 142.698 26.9895 142.126 27.2442C141.558 27.4988 140.846 27.6278 139.992 27.6278C138.851 27.6278 137.958 27.3348 137.313 26.7454C136.668 26.1594 136.343 25.3223 136.343 24.2411C136.343 21.9216 138.199 20.7043 141.91 20.5927L143.86 20.5299V19.8184C143.86 18.915 143.664 18.2488 143.277 17.8198C142.89 17.3908 142.269 17.1745 141.415 17.1745C140.455 17.1745 139.374 17.4675 138.164 18.057L137.63 16.7246C138.195 16.4176 138.816 16.177 139.493 16.0026C140.166 15.8282 140.843 15.741 141.523 15.741C142.893 15.741 143.908 16.0444 144.568 16.6548C145.227 17.2617 145.558 18.2383 145.558 19.5812V27.4255H144.271V27.4186ZM140.337 26.1908C141.422 26.1908 142.269 25.8943 142.89 25.3014C143.507 24.7084 143.818 23.8748 143.818 22.804V21.7646L142.077 21.8379C140.693 21.8867 139.695 22.103 139.085 22.4831C138.474 22.8633 138.167 23.4563 138.167 24.262C138.167 24.8898 138.356 25.3711 138.739 25.699C139.12 26.0269 139.653 26.1908 140.337 26.1908Z" fill="#333333"/>
<path d="M146.57 15.9258H148.436L150.954 22.4797C151.505 23.976 151.85 25.0572 151.983 25.7199H152.067C152.157 25.3642 152.349 24.7538 152.639 23.8888C152.928 23.0238 153.877 20.373 155.485 15.9258H157.351L152.412 29.0126C151.924 30.3066 151.352 31.2239 150.696 31.7645C150.044 32.3052 149.241 32.5772 148.289 32.5772C147.759 32.5772 147.232 32.5179 146.716 32.3993V31.0042C147.1 31.0879 147.532 31.1297 148.007 31.1297C149.203 31.1297 150.054 30.46 150.567 29.1172L151.205 27.4814L146.57 15.9258Z" fill="#333333"/>
<path d="M93.215 16.9931C93.7661 17.4501 94.9206 18.4127 94.9206 20.2404C94.9206 22.0193 93.9126 22.8598 92.9011 23.6551C92.5872 23.9655 92.2279 24.3039 92.2279 24.834C92.2279 25.3607 92.5872 25.6502 92.8523 25.8664L93.7173 26.5396C94.7741 27.429 95.7368 28.2487 95.7368 29.9055C95.7368 32.1656 93.5499 34.4467 89.4167 34.4467C85.9287 34.4467 84.2476 32.79 84.2476 31.0077C84.2476 30.1426 84.6801 28.9184 86.0996 28.0743C87.589 27.1605 89.6085 27.0419 90.6898 26.9686C90.3514 26.5361 89.9678 26.0792 89.9678 25.3363C89.9678 24.9282 90.0898 24.6875 90.2084 24.398C89.9433 24.4224 89.6783 24.4469 89.4376 24.4469C86.8914 24.4469 85.4474 22.5459 85.4474 20.6729C85.4474 19.5672 85.9532 18.3395 86.9856 17.4501C88.3563 16.32 89.9922 16.1281 91.2897 16.1281H96.2391L94.7009 16.9931H93.215ZM91.5059 27.6662C91.3141 27.6418 91.192 27.6418 90.9549 27.6418C90.7386 27.6418 89.4376 27.6906 88.4296 28.029C87.8994 28.2208 86.3612 28.7963 86.3612 30.5054C86.3612 32.211 88.0215 33.4387 90.5921 33.4387C92.8976 33.4387 94.1254 32.3296 94.1254 30.8402C94.1289 29.6125 93.3336 28.9672 91.5059 27.6662ZM92.2035 23.1005C92.7546 22.5459 92.8034 21.7786 92.8034 21.3461C92.8034 19.6161 91.771 16.9234 89.7759 16.9234C89.1516 16.9234 88.4784 17.2338 88.0913 17.7186C87.6832 18.2244 87.5611 18.8731 87.5611 19.4975C87.5611 21.1089 88.4993 23.7772 90.5677 23.7772C91.1711 23.7737 91.8199 23.4842 92.2035 23.1005Z" fill="#333333"/>
<path d="M78.0808 27.2826C74.2651 27.2826 72.2246 24.3074 72.2246 21.6182C72.2246 18.4756 74.7917 15.7864 78.4401 15.7864C81.9664 15.7864 84.1743 18.5454 84.1743 21.4508C84.1777 24.283 81.9943 27.2826 78.0808 27.2826ZM81.0805 25.3398C81.656 24.5725 81.8025 23.6098 81.8025 22.6751C81.8025 20.5614 80.7945 16.5293 77.8193 16.5293C77.0275 16.5293 76.2357 16.8433 75.6602 17.3455C74.7255 18.1861 74.5545 19.2395 74.5545 20.2754C74.5545 22.6507 75.73 26.5606 78.6354 26.5606C79.5702 26.5606 80.5294 26.1072 81.0805 25.3398Z" fill="#333333"/>
<path d="M65.0744 27.2826C61.2586 27.2826 59.2181 24.3074 59.2181 21.6182C59.2181 18.4756 61.7853 15.7864 65.4336 15.7864C68.9599 15.7864 71.1678 18.5454 71.1678 21.4508C71.1678 24.283 68.9843 27.2826 65.0744 27.2826ZM68.074 25.3398C68.6495 24.5725 68.796 23.6098 68.796 22.6751C68.796 20.5614 67.788 16.5293 64.8128 16.5293C64.021 16.5293 63.2293 16.8433 62.6538 17.3455C61.719 18.1861 61.5481 19.2395 61.5481 20.2754C61.5481 22.6507 62.7235 26.5606 65.629 26.5606C66.5602 26.5606 67.5194 26.1072 68.074 25.3398Z" fill="#333333"/>
<path d="M57.3835 26.9059L53.9339 27.7011C52.5353 27.9174 51.2796 28.1092 49.9542 28.1092C43.2922 28.1092 40.76 23.2121 40.76 19.3754C40.76 14.6946 44.3561 10.3521 50.5088 10.3521C51.8133 10.3521 53.0654 10.544 54.199 10.8579C56.0092 11.3636 56.8533 11.9915 57.3835 12.3542L55.3814 14.2586L54.5373 14.4505L55.1407 13.4843C54.3211 12.6891 52.8248 11.2171 49.9786 11.2171C46.1663 11.2171 43.2957 14.1121 43.2957 18.336C43.2957 22.8703 46.5779 27.143 51.8377 27.143C53.3828 27.143 54.1781 26.8291 54.9036 26.5396V22.661L51.2622 22.8529L53.191 21.8135H58.3078L57.68 22.4169C57.509 22.5634 57.4881 22.6122 57.4393 22.8041C57.4149 23.0203 57.3905 23.7214 57.3905 23.962V26.9059H57.3835Z" fill="#333333"/>
<path d="M100.84 26.2118C100.044 26.1385 99.8769 25.9955 99.8769 25.0538V24.7887V11.395C99.8804 11.3427 99.8839 11.2904 99.8909 11.2381C99.9885 10.394 100.229 10.251 100.979 9.815H97.5261L95.7158 10.6835H97.5609V10.694V10.6835V24.7817V25.5804C97.5609 26.0618 97.4668 26.135 96.9087 26.857H101.181L102.074 26.3269C101.663 26.2815 101.251 26.2606 100.84 26.2118Z" fill="#333333"/>
<path d="M110.658 26.4315C110.397 26.5745 110.132 26.7454 109.87 26.864C109.078 27.2232 108.262 27.3209 107.543 27.3209C106.78 27.3209 105.58 27.2721 104.355 26.3861C102.657 25.1863 101.914 23.1249 101.914 21.3286C101.914 17.614 104.934 15.7933 107.4 15.7933C108.262 15.7933 109.151 16.0096 109.87 16.463C111.066 17.2513 111.38 18.2837 111.544 18.8348L105.915 21.1124L104.069 21.2554C104.666 24.2969 106.727 26.0687 109.005 26.0687C110.226 26.0687 111.115 25.6397 111.928 25.2316L110.658 26.4315ZM108.408 19.2917C108.862 19.1243 109.103 18.9813 109.103 18.6464C109.103 17.6873 108.025 16.5851 106.731 16.5851C105.772 16.5851 103.975 17.328 103.975 19.916C103.975 20.3241 104.024 20.7531 104.049 21.1856L108.408 19.2917Z" fill="#333333"/>
<path d="M112.974 15.9572V17.5373H112.782V15.9572H112.259V15.7933H113.497V15.9572H112.974Z" fill="#333333"/>
<path d="M115.13 17.5373V15.9399H115.119L114.631 17.5373H114.481L113.989 15.9399H113.982V17.5373H113.808V15.7934H114.108L114.551 17.2025H114.558L114.994 15.7934H115.297V17.5373H115.13Z" fill="#333333"/>
<path d="M45.5489 5.65467H44.349C44.349 5.49074 44.2339 5.02335 44.0072 4.25252H42.2772C42.0435 5.0094 41.9249 5.47678 41.9249 5.65467H40.7983C40.7983 5.55701 41.0913 4.75827 41.6738 3.25497C42.2563 1.75516 42.5493 0.928524 42.5493 0.775055H43.9654C43.9654 0.91806 44.2305 1.73075 44.7571 3.22009C45.2873 4.70944 45.5489 5.52213 45.5489 5.65467ZM43.8189 3.54098C43.3934 2.25045 43.1771 1.55635 43.1771 1.45171H43.1178C43.1178 1.54937 42.8981 2.24696 42.4551 3.54098H43.8189Z" fill="#333333"/>
<path d="M50.3831 5.65387H49.4588C49.4588 5.55272 49.117 5.0121 48.4299 4.03199C47.7114 2.99956 47.2998 2.295 47.2021 1.91481H47.1429C47.2056 2.46242 47.237 2.95771 47.237 3.39718C47.237 4.01455 47.2545 4.76445 47.2893 5.65387H46.3685C46.4069 4.87955 46.4243 4.0285 46.4243 3.10071C46.4243 2.19036 46.4069 1.41255 46.3685 0.774261H47.4812C47.4812 0.906803 47.7881 1.43348 48.4055 2.35778C49.0612 3.33789 49.4379 4.00408 49.5356 4.35637H49.5914C49.5321 3.7983 49.5007 3.29952 49.5007 2.85656C49.5007 2.1799 49.4833 1.4858 49.4484 0.774261H50.3866C50.3517 1.39511 50.3343 2.16943 50.3343 3.10071C50.3308 4.04245 50.3483 4.89351 50.3831 5.65387Z" fill="#333333"/>
<path d="M55.8139 3.04844C55.8139 3.75649 55.5872 4.37734 55.1303 4.9075C54.6768 5.43767 54.0385 5.70275 53.2189 5.70275C52.8492 5.70275 52.3399 5.6888 51.6912 5.65741C51.7226 4.90402 51.74 4.05296 51.74 3.10424C51.74 2.19389 51.7226 1.41957 51.6912 0.777793H52.3469C52.455 0.777793 52.6155 0.774306 52.8282 0.76733C53.041 0.760354 53.1805 0.756866 53.2433 0.756866C54.1432 0.756866 54.7989 0.980094 55.2035 1.43004C55.6081 1.87998 55.8139 2.41712 55.8139 3.04844ZM54.7884 3.20888C54.7884 2.72755 54.6489 2.32643 54.3699 1.99508C54.0909 1.66722 53.6618 1.50328 53.0898 1.50328C52.9817 1.50328 52.8352 1.51375 52.6469 1.53816C52.6713 2.03694 52.6852 2.56013 52.6852 3.10424C52.6852 3.70068 52.6992 4.29363 52.7236 4.8796C52.8875 4.91099 53.048 4.92843 53.2119 4.92843C53.749 4.92843 54.1467 4.76101 54.4048 4.42966C54.6594 4.09482 54.7884 3.69022 54.7884 3.20888Z" fill="#333333"/>
<path d="M60.8191 5.65392H59.7099C59.4204 4.76798 59.1972 4.22387 59.0437 4.01808C58.8902 3.81229 58.6391 3.70765 58.2938 3.70765C58.1473 3.70765 58.0113 3.70765 57.8787 3.71114C57.8787 4.35292 57.8892 5.00168 57.9136 5.65741H56.8707C56.9021 4.90401 56.9196 4.05296 56.9196 3.10424C56.9196 2.19389 56.9021 1.41957 56.8707 0.777793H57.5195C57.5927 0.777793 57.7497 0.774306 57.9904 0.76733C58.2275 0.760354 58.4508 0.756866 58.6531 0.756866C59.8006 0.756866 60.3726 1.14751 60.3726 1.9323C60.3726 2.55315 60.0447 2.98914 59.3925 3.2333V3.2891C59.6436 3.35886 59.8669 3.55418 60.0552 3.87856C60.2401 4.19945 60.4982 4.7924 60.8191 5.65392ZM59.4134 2.20785C59.4134 1.71256 59.0925 1.46143 58.4542 1.46143C58.2206 1.46143 58.0113 1.47887 57.8334 1.51375C57.8613 1.90091 57.8752 2.40666 57.8752 3.02751C58.0113 3.031 58.1299 3.03448 58.224 3.03448C59.0158 3.03797 59.4134 2.75894 59.4134 2.20785Z" fill="#333333"/>
<path d="M66.1904 3.12516C66.1904 3.8925 65.9567 4.52731 65.4859 5.03306C65.015 5.53881 64.436 5.78994 63.7419 5.78994C63.0827 5.78994 62.5316 5.55973 62.0851 5.09584C61.6422 4.63194 61.4189 4.04248 61.4189 3.33095C61.4189 2.5636 61.6526 1.9288 62.1235 1.42305C62.5944 0.9173 63.1734 0.666168 63.8675 0.666168C64.5267 0.666168 65.0778 0.896372 65.5242 1.36027C65.9672 1.82067 66.1904 2.41013 66.1904 3.12516ZM65.158 3.23677C65.158 2.71358 65.0255 2.29154 64.7569 1.96717C64.4883 1.64279 64.1605 1.47886 63.7663 1.47886C63.4001 1.47886 63.0932 1.64279 62.8385 1.97065C62.5839 2.29852 62.4549 2.71009 62.4549 3.21236C62.4549 3.73206 62.5874 4.1541 62.856 4.48196C63.1245 4.80634 63.4524 4.97027 63.8431 4.97027C64.2093 4.97027 64.5162 4.80634 64.7708 4.47848C65.029 4.14363 65.158 3.73206 65.158 3.23677Z" fill="#333333"/>
<path d="M68.3076 5.65387H67.2473C67.2787 4.87955 67.2961 4.0285 67.2961 3.10071C67.2961 2.19036 67.2787 1.41255 67.2473 0.774261H68.3076C68.2763 1.40209 68.2588 2.1799 68.2588 3.10071C68.2588 4.04594 68.2763 4.89699 68.3076 5.65387Z" fill="#333333"/>
<path d="M73.7383 3.04844C73.7383 3.75649 73.5116 4.37734 73.0547 4.9075C72.6013 5.43767 71.963 5.70275 71.1433 5.70275C70.7736 5.70275 70.2644 5.6888 69.6156 5.65741C69.647 4.90402 69.6644 4.05296 69.6644 3.10424C69.6644 2.19389 69.647 1.41957 69.6156 0.777793H70.2713C70.3795 0.777793 70.5399 0.774306 70.7527 0.76733C70.9654 0.760354 71.1049 0.756866 71.1677 0.756866C72.0676 0.756866 72.7233 0.980094 73.1279 1.43004C73.536 1.87998 73.7383 2.41712 73.7383 3.04844ZM72.7164 3.20888C72.7164 2.72755 72.5769 2.32643 72.2978 1.99508C72.0188 1.66722 71.5898 1.50328 71.0177 1.50328C70.9096 1.50328 70.7631 1.51375 70.5748 1.53816C70.5992 2.03694 70.6131 2.56013 70.6131 3.10424C70.6131 3.70068 70.6271 4.29363 70.6515 4.8796C70.8154 4.91099 70.9759 4.92843 71.1398 4.92843C71.677 4.92843 72.0746 4.76101 72.3327 4.42966C72.5873 4.09482 72.7164 3.69022 72.7164 3.20888Z" fill="#333333"/>
<path d="M80.9444 5.65387H79.7446C79.7446 5.48994 79.6295 5.02256 79.4027 4.25173H77.6727C77.439 5.00861 77.3205 5.47599 77.3205 5.65387H76.1938C76.1938 5.55621 76.4868 4.75748 77.0693 3.25418C77.6518 1.75437 77.9448 0.92773 77.9448 0.774261H79.3609C79.3609 0.917267 79.626 1.72995 80.1526 3.2193C80.6793 4.70865 80.9444 5.52133 80.9444 5.65387ZM79.2144 3.54019C78.7889 2.24966 78.5726 1.55556 78.5726 1.45092H78.5133C78.5133 1.54858 78.2936 2.24617 77.8506 3.54019H79.2144Z" fill="#333333"/>
<path d="M85.3147 2.05439C85.3147 2.65082 85.0915 3.09379 84.6485 3.37631C84.2056 3.66232 83.6614 3.80184 83.0162 3.80184C82.8976 3.80184 82.8139 3.79835 82.765 3.79486C82.765 4.26573 82.779 4.8831 82.8069 5.65393H81.7535C81.7849 4.93193 81.8024 4.08087 81.8024 3.10076C81.8024 2.20088 81.7849 1.42656 81.7535 0.774316H82.4058C82.4965 0.774316 82.6744 0.770828 82.9394 0.763852C83.201 0.756876 83.4277 0.753387 83.6231 0.753387C84.0974 0.753387 84.4985 0.861514 84.8264 1.07428C85.1508 1.29053 85.3147 1.61839 85.3147 2.05439ZM84.3486 2.26017C84.3486 1.72652 83.9928 1.45795 83.2847 1.45795C83.1069 1.45795 82.9185 1.47539 82.7232 1.51376C82.7511 1.98463 82.765 2.52177 82.765 3.1182C82.8278 3.12169 82.9011 3.12518 82.9813 3.12518C83.8916 3.12518 84.3486 2.83917 84.3486 2.26017Z" fill="#333333"/>
<path d="M89.8073 2.05439C89.8073 2.65082 89.584 3.09379 89.1411 3.37631C88.6981 3.66232 88.154 3.80184 87.5087 3.80184C87.3901 3.80184 87.3064 3.79835 87.2576 3.79486C87.2576 4.26573 87.2715 4.8831 87.2994 5.65393H86.2461C86.2775 4.93193 86.2949 4.08087 86.2949 3.10076C86.2949 2.20088 86.2775 1.42656 86.2461 0.774316H86.8983C86.989 0.774316 87.1669 0.770828 87.432 0.763852C87.6936 0.756876 87.9203 0.753387 88.1156 0.753387C88.59 0.753387 88.9911 0.861514 89.319 1.07428C89.6468 1.29053 89.8073 1.61839 89.8073 2.05439ZM88.8411 2.26017C88.8411 1.72652 88.4853 1.45795 87.7773 1.45795C87.5994 1.45795 87.4111 1.47539 87.2157 1.51376C87.2436 1.98463 87.2576 2.52177 87.2576 3.1182C87.3204 3.12169 87.3936 3.12518 87.4738 3.12518C88.3877 3.12518 88.8411 2.83917 88.8411 2.26017Z" fill="#333333"/>
<path d="M97.1564 3.12516C97.1564 3.8925 96.9227 4.52731 96.4518 5.03306C95.9809 5.53881 95.4019 5.78994 94.7079 5.78994C94.0486 5.78994 93.4975 5.55973 93.0511 5.09584C92.6081 4.63194 92.3849 4.04248 92.3849 3.33095C92.3849 2.5636 92.6186 1.9288 93.0894 1.42305C93.5603 0.9173 94.1393 0.666168 94.8334 0.666168C95.4926 0.666168 96.0437 0.896372 96.4902 1.36027C96.9331 1.82067 97.1564 2.41013 97.1564 3.12516ZM96.1205 3.23677C96.1205 2.71358 95.9879 2.29154 95.7193 1.96717C95.4508 1.64279 95.1229 1.47886 94.7288 1.47886C94.3625 1.47886 94.0556 1.64279 93.801 1.97065C93.5464 2.29852 93.4173 2.71009 93.4173 3.21236C93.4173 3.73206 93.5499 4.1541 93.8219 4.48196C94.0905 4.80634 94.4183 4.97027 94.809 4.97027C95.1752 4.97027 95.4822 4.80634 95.7368 4.47848C95.9949 4.14363 96.1205 3.73206 96.1205 3.23677Z" fill="#333333"/>
<path d="M102.235 5.65387H101.31C101.31 5.55272 100.969 5.0121 100.281 4.03199C99.5629 2.99956 99.1514 2.295 99.0537 1.91481H98.9944C99.0572 2.46242 99.0886 2.95771 99.0886 3.39718C99.0886 4.01455 99.106 4.76445 99.1409 5.65387H98.2201C98.2585 4.87955 98.2759 4.0285 98.2759 3.10071C98.2759 2.19036 98.2585 1.41255 98.2201 0.774261H99.3327C99.3327 0.906803 99.6397 1.43348 100.257 2.35778C100.913 3.33789 101.289 4.00408 101.387 4.35637H101.443C101.384 3.7983 101.352 3.29952 101.352 2.85656C101.352 2.1799 101.335 1.4858 101.3 0.774261H102.238C102.203 1.39511 102.186 2.16943 102.186 3.10071C102.182 4.04245 102.2 4.89351 102.235 5.65387Z" fill="#333333"/>
<defs>
<linearGradient id="paint0_linear" x1="9.96557" y1="0.1443" x2="9.96557" y2="39.6635" gradientUnits="userSpaceOnUse">
<stop stop-color="#2079B0"/>
<stop offset="0.2863" stop-color="#4A93B8"/>
<stop offset="0.767" stop-color="#83BEBF"/>
<stop offset="1" stop-color="#97CFBF"/>
</linearGradient>
<linearGradient id="paint1_linear" x1="0.00167421" y1="9.95145" x2="25.282" y2="9.95145" gradientUnits="userSpaceOnUse">
<stop stop-color="#5ABCAB"/>
<stop offset="1" stop-color="#E6E99A"/>
</linearGradient>
<linearGradient id="paint2_linear" x1="12.6417" y1="19.9033" x2="12.6417" y2="39.8062" gradientUnits="userSpaceOnUse">
<stop stop-color="#E53432"/>
<stop offset="0.1668" stop-color="#D73948"/>
<stop offset="0.5748" stop-color="#B33F72"/>
<stop offset="0.8619" stop-color="#9A4189"/>
<stop offset="1" stop-color="#904192"/>
</linearGradient>
<linearGradient id="paint3_linear" x1="27.2021" y1="14.5958" x2="27.2021" y2="25.2101" gradientUnits="userSpaceOnUse">
<stop stop-color="#F18779"/>
<stop offset="0.1194" stop-color="#F2917A"/>
<stop offset="0.7128" stop-color="#FABC77"/>
<stop offset="1" stop-color="#FDCB72"/>
</linearGradient>
</defs>
</svg>
