<svg width="51" height="77" viewBox="0 0 51 77" fill="none" xmlns="http://www.w3.org/2000/svg">
<path d="M0.942871 71.9664C0.942871 74.1948 2.89872 76.0952 5.60972 76.0952H26.9126C29.6236 76.0952 31.9041 74.2022 31.9041 71.9664C31.9041 66.4588 31.9041 25.6622 31.9041 19.454H0.942871C0.942871 25.6547 0.942871 66.4439 0.942871 71.9664ZM4.71864 23.1729H28.1284V35.0974H4.71864V23.1729ZM4.71864 69.3803H28.1284V71.877C28.1284 71.9887 27.5016 72.3614 26.9126 72.3614C5.73809 72.3614 4.71864 72.6297 4.71864 71.8844V69.3803ZM14.5281 25.133L16.2196 32.3026L12.542 33.1448L10.8505 25.9752L14.5281 25.133ZM8.77381 17.1511L5.81361 4.60059L9.4912 3.75842L12.4514 16.3089L8.77381 17.1511ZM36.722 28.9041L36.4653 25.1852C47.4225 24.4474 50.4884 9.81754 40.6262 4.91361C33.7467 1.49277 25.5306 6.03898 24.9039 13.6185L21.1432 13.3129C21.619 7.51463 25.5457 2.58833 31.149 0.762399C38.8364 -1.73429 47.1054 2.3722 49.6351 9.95915C52.6482 18.9621 46.2143 28.2632 36.722 28.9041ZM39.2216 15.7649L43.1408 18.9398L40.747 21.824L36.8277 18.6491L39.2216 15.7649ZM39.8559 7.38793L42.7859 9.73556L39.5916 13.6259L36.6616 11.2783L39.8559 7.38793ZM30.7563 8.9083L34.6755 12.0832L32.2817 14.96L28.3625 11.7851L30.7563 8.9083Z" fill="white"/>
</svg>
