<svg width="27" height="78" viewBox="0 0 27 78" fill="none" xmlns="http://www.w3.org/2000/svg">
<path d="M20.1573 0.0317419L14.3899 20.6077L18.6623 21.8053L24.4297 1.2293L20.1573 0.0317419Z" fill="white"/>
<path d="M8.03425 12.8491C11.3532 12.8491 11.362 17.8807 8.03425 17.8807C4.71535 17.8807 4.70648 12.8491 8.03425 12.8491Z" fill="white"/>
<path d="M26.6254 24.9265H0.00317383V77.2835H26.6254V24.9265Z" fill="white"/>
<path d="M10.4568 62.0912C10.4568 58.1777 16.3847 58.1688 16.3847 62.0912C16.3847 66.0135 10.4568 66.0135 10.4568 62.0912Z" fill="white"/>
<path d="M14.4503 51.5842C14.4503 48.851 18.5945 48.8422 18.5945 51.5842C18.5945 54.3175 14.4503 54.3263 14.4503 51.5842Z" fill="white"/>
<path d="M22.1882 36.4628C11.4683 37.0041 12.2404 40.8022 4.44006 41.1305V29.3635H22.1882V36.4628Z" fill="white"/>
</svg>
