<svg width="38" height="53" viewBox="0 0 38 53" fill="none" xmlns="http://www.w3.org/2000/svg">
<path fill-rule="evenodd" clip-rule="evenodd" d="M18.6891 0C8.42767 0 0.0793457 8.34833 0.0793457 18.6097V51.353C0.0793457 52.2105 0.774557 52.9057 1.63208 52.9057H35.7462C36.6037 52.9057 37.2989 52.2105 37.2989 51.353V18.6097C37.2989 8.34833 28.9506 0 18.6891 0ZM3.18481 20.1625H17.1363V33.4286H3.18481V20.1625ZM28.494 6.60896C26.1974 4.72911 23.3538 3.49407 20.2418 3.18321V14.8611L28.494 6.60896ZM17.1363 14.8941L8.80871 6.67034C11.1183 4.75571 13.9903 3.49748 17.1363 3.18321V14.8941ZM34.1933 20.1625H20.2418V33.4286H34.1933V20.1625ZM34.1163 17.057H22.4377L30.6898 8.80483C32.5698 11.1015 33.8055 13.9449 34.1163 17.057ZM14.9069 17.0571L6.62671 8.88009C4.78134 11.1634 3.56938 13.9789 3.26193 17.0571H14.9069ZM3.18481 36.5341H17.1363V49.8002H3.18481V36.5341ZM20.2418 36.5341V49.8002H34.1933V36.5341H20.2418Z" fill="#252021"/>
</svg>
