<svg width="42" height="77" viewBox="0 0 42 77" fill="none" xmlns="http://www.w3.org/2000/svg">
<path d="M34.0282 72.5738H36.8453V76.0952H27.6895V72.5738H30.5067V63.8335C31.6688 63.9814 32.8168 63.9673 34.0282 63.756V72.5738ZM41.8247 46.515C41.5782 45.1064 41.0922 43.4513 40.395 42.1906L23.6187 42.2329C22.9285 43.5006 22.4355 45.1064 22.189 46.515H41.8247ZM22.0834 50.0364C22.6398 55.6708 26.8655 60.5656 32.0139 60.5656C37.1552 60.5656 41.388 55.6708 41.9444 50.0364H22.0834ZM16.4209 0.0317383H7.26508V3.5532H16.4209V0.0317383ZM23.4638 60.467V69.9961C23.4638 72.1935 21.7735 73.9824 19.7029 73.9824H4.38453C2.20827 73.9824 0.222168 72.0808 0.222168 69.9961V33.9152C0.222168 29.1894 3.12385 25.1256 7.26508 23.3579V5.66607H16.4209V23.3297C20.5621 25.0834 23.4638 29.1683 23.4638 33.9152V38.7678H21.5411C20.6255 40.3454 18.4985 43.4513 18.4985 48.5926C18.4985 53.3818 20.4353 57.6498 23.4638 60.467ZM10.7865 38.0635H7.26508V61.3051H10.7865V38.0635Z" fill="white"/>
</svg>
